<svg width="773" height="1103" viewBox="0 0 773 1103" fill="none" xmlns="http://www.w3.org/2000/svg">
<g opacity="0.5">
<path d="M263.27 867.723C236.795 911.139 215.338 995.799 341.308 987.103C498.769 976.233 924.04 1000.69 738.174 1215.74" stroke="url(#paint0_linear_138_573)" stroke-width="0.585618"/>
<path d="M969.446 339.227C906.701 740.214 350.636 263.207 493.868 386.491C880.704 719.45 561.729 980.167 685.393 1229.64" stroke="url(#paint1_linear_138_573)" stroke-width="0.585618"/>
<path d="M275.507 849.468C247.214 904.333 209.563 969.925 335.842 965.511C500.056 966.133 900.904 996.845 724.955 1213.56" stroke="url(#paint2_linear_138_573)" stroke-width="0.585618"/>
<path d="M288.15 831.001C258.083 897.32 204.166 943.906 330.77 943.774C501.781 955.862 878.232 992.918 712.204 1211.26" stroke="url(#paint3_linear_138_573)" stroke-width="0.585618"/>
<path d="M301.142 812.34C269.342 890.121 199.088 917.763 326.034 921.911C503.886 945.439 855.965 988.931 699.864 1208.86" stroke="url(#paint4_linear_138_573)" stroke-width="0.585618"/>
<path d="M314.433 793.51C280.945 882.759 194.282 891.518 321.587 899.944C506.322 934.887 834.055 984.907 687.887 1206.38" stroke="url(#paint5_linear_138_573)" stroke-width="0.585618"/>
<path d="M327.991 774.515C292.857 875.239 189.714 865.177 317.394 877.881C509.057 924.213 812.469 980.853 676.24 1203.84" stroke="url(#paint6_linear_138_573)" stroke-width="0.585618"/>
<path d="M341.777 755.377C305.041 867.583 185.347 838.762 313.418 855.741C512.052 913.437 791.17 976.788 664.884 1201.26" stroke="url(#paint7_linear_138_573)" stroke-width="0.585618"/>
<path d="M355.766 736.098C317.471 859.791 181.154 812.274 309.634 833.528C515.283 902.56 770.133 972.714 653.795 1198.62" stroke="url(#paint8_linear_138_573)" stroke-width="0.585618"/>
<path d="M369.936 716.69C330.124 851.878 177.115 785.727 306.019 811.253C518.726 891.596 749.335 968.645 642.95 1195.96" stroke="url(#paint9_linear_138_573)" stroke-width="0.585618"/>
<path d="M384.263 697.166C342.978 843.853 173.205 759.131 302.551 788.929C522.359 880.556 728.755 964.591 632.327 1193.27" stroke="url(#paint10_linear_138_573)" stroke-width="0.585618"/>
<path d="M398.733 677.525C356.017 835.718 169.411 732.488 299.215 766.556C526.167 869.441 708.376 960.553 621.911 1190.57" stroke="url(#paint11_linear_138_573)" stroke-width="0.585618"/>
<path d="M413.327 657.773C369.225 827.478 165.714 705.804 295.992 744.14C530.133 858.255 688.181 956.537 611.684 1187.85" stroke="url(#paint12_linear_138_573)" stroke-width="0.585618"/>
<path d="M428.715 639.459C383.269 820.682 162.784 680.626 293.554 723.229C534.925 848.549 668.842 954.09 602.316 1186.66" stroke="url(#paint13_linear_138_573)" stroke-width="0.585618"/>
<path d="M447.504 628.441C400.758 821.188 163.229 662.813 294.506 709.681C543.151 846.178 652.964 959.071 596.415 1192.86" stroke="url(#paint14_linear_138_573)" stroke-width="0.585618"/>
<path d="M466.457 617.409C418.454 821.684 163.811 645.055 295.612 696.185C551.573 843.833 637.311 964.168 590.743 1199.14" stroke="url(#paint15_linear_138_573)" stroke-width="0.585618"/>
<path d="M485.557 606.34C436.34 822.149 164.514 627.33 296.855 682.721C560.176 841.493 621.867 969.362 585.283 1205.48" stroke="url(#paint16_linear_138_573)" stroke-width="0.585618"/>
<path d="M504.786 595.223C454.399 822.571 165.32 609.626 298.218 669.277C568.941 839.144 606.614 974.637 580.019 1211.87" stroke="url(#paint17_linear_138_573)" stroke-width="0.585618"/>
<path d="M524.135 584.048C472.62 822.941 166.219 591.934 299.691 655.842C577.859 836.779 591.543 979.987 574.941 1218.29" stroke="url(#paint18_linear_138_573)" stroke-width="0.585618"/>
<path d="M543.589 572.81C490.99 823.253 167.199 574.249 301.261 642.412C586.916 834.39 576.64 985.404 570.035 1224.75" stroke="url(#paint19_linear_138_573)" stroke-width="0.585618"/>
<path d="M563.144 561.503C509.504 823.5 168.254 556.563 302.922 628.98C596.108 831.971 561.901 990.883 565.297 1231.23" stroke="url(#paint20_linear_138_573)" stroke-width="0.585618"/>
<path d="M588.098 547.681C533.461 821.237 174.682 536.433 309.974 613.101C610.732 827.079 552.624 993.978 566.025 1235.29" stroke="url(#paint21_linear_138_573)" stroke-width="0.585618"/>
<path d="M622.816 529.272C567.225 814.393 190.849 511.786 326.78 592.703C635.153 817.639 553.175 992.616 576.584 1234.85" stroke="url(#paint22_linear_138_573)" stroke-width="0.585618"/>
<path d="M657.528 510.765C601.026 807.453 206.986 487.109 343.573 572.274C659.603 808.139 553.785 991.285 587.204 1234.41" stroke="url(#paint23_linear_138_573)" stroke-width="0.585618"/>
<path d="M692.231 492.147C634.862 800.408 223.089 462.393 360.349 551.802C684.078 798.57 554.45 989.974 597.885 1233.95" stroke="url(#paint24_linear_138_573)" stroke-width="0.585618"/>
<path d="M726.924 473.424C668.731 793.262 239.157 437.641 377.106 531.292C708.577 788.934 555.17 988.687 608.623 1233.48" stroke="url(#paint25_linear_138_573)" stroke-width="0.585618"/>
<path d="M761.607 454.591C702.634 786.01 255.191 412.849 393.845 510.741C733.1 779.228 555.945 987.421 619.42 1232.99" stroke="url(#paint26_linear_138_573)" stroke-width="0.585618"/>
<path d="M796.279 435.645C736.569 778.65 271.19 388.015 410.566 490.145C757.646 769.449 556.775 986.171 630.274 1232.49" stroke="url(#paint27_linear_138_573)" stroke-width="0.585618"/>
<path d="M830.939 416.592C770.535 771.186 287.153 363.143 427.267 469.508C782.215 759.601 557.659 984.943 641.185 1231.97" stroke="url(#paint28_linear_138_573)" stroke-width="0.585618"/>
<path d="M865.585 397.421C804.53 763.608 303.078 338.224 443.947 448.823C806.804 749.676 558.595 983.726 652.152 1231.42" stroke="url(#paint29_linear_138_573)" stroke-width="0.585618"/>
<path d="M900.218 378.139C838.557 755.922 318.967 313.264 460.607 428.093C831.416 739.677 559.585 982.527 663.175 1230.85" stroke="url(#paint30_linear_138_573)" stroke-width="0.585618"/>
<path d="M934.837 358.742C872.612 748.126 334.818 288.259 477.246 407.317C856.047 729.604 560.628 981.342 674.254 1230.26" stroke="url(#paint31_linear_138_573)" stroke-width="0.585618"/>
</g>
<defs>
<linearGradient id="paint0_linear_138_573" x1="421.168" y1="802.001" x2="614.761" y2="1267.11" gradientUnits="userSpaceOnUse">
<stop stop-color="white"/>
<stop offset="1" stop-color="#FFF3EA"/>
</linearGradient>
<linearGradient id="paint1_linear_138_573" x1="594.285" y1="305.233" x2="975.375" y2="1088.57" gradientUnits="userSpaceOnUse">
<stop stop-color="white"/>
<stop offset="1" stop-color="#FFF3EA"/>
</linearGradient>
<linearGradient id="paint2_linear_138_573" x1="413.933" y1="791.545" x2="610.551" y2="1261.43" gradientUnits="userSpaceOnUse">
<stop stop-color="white"/>
<stop offset="1" stop-color="#FFF3EA"/>
</linearGradient>
<linearGradient id="paint3_linear_138_573" x1="406.959" y1="781.024" x2="606.62" y2="1255.67" gradientUnits="userSpaceOnUse">
<stop stop-color="white"/>
<stop offset="1" stop-color="#FFF3EA"/>
</linearGradient>
<linearGradient id="paint4_linear_138_573" x1="400.22" y1="770.443" x2="602.944" y2="1249.84" gradientUnits="userSpaceOnUse">
<stop stop-color="white"/>
<stop offset="1" stop-color="#FFF3EA"/>
</linearGradient>
<linearGradient id="paint5_linear_138_573" x1="393.701" y1="759.814" x2="599.505" y2="1243.95" gradientUnits="userSpaceOnUse">
<stop stop-color="white"/>
<stop offset="1" stop-color="#FFF3EA"/>
</linearGradient>
<linearGradient id="paint6_linear_138_573" x1="387.393" y1="749.131" x2="596.298" y2="1238" gradientUnits="userSpaceOnUse">
<stop stop-color="white"/>
<stop offset="1" stop-color="#FFF3EA"/>
</linearGradient>
<linearGradient id="paint7_linear_138_573" x1="381.288" y1="738.405" x2="593.31" y2="1232" gradientUnits="userSpaceOnUse">
<stop stop-color="white"/>
<stop offset="1" stop-color="#FFF3EA"/>
</linearGradient>
<linearGradient id="paint8_linear_138_573" x1="375.386" y1="727.627" x2="590.545" y2="1225.93" gradientUnits="userSpaceOnUse">
<stop stop-color="white"/>
<stop offset="1" stop-color="#FFF3EA"/>
</linearGradient>
<linearGradient id="paint9_linear_138_573" x1="369.693" y1="716.796" x2="588.006" y2="1219.81" gradientUnits="userSpaceOnUse">
<stop stop-color="white"/>
<stop offset="1" stop-color="#FFF3EA"/>
</linearGradient>
<linearGradient id="paint10_linear_138_573" x1="364.217" y1="705.911" x2="585.704" y2="1213.61" gradientUnits="userSpaceOnUse">
<stop stop-color="white"/>
<stop offset="1" stop-color="#FFF3EA"/>
</linearGradient>
<linearGradient id="paint11_linear_138_573" x1="358.977" y1="694.957" x2="583.656" y2="1207.34" gradientUnits="userSpaceOnUse">
<stop stop-color="white"/>
<stop offset="1" stop-color="#FFF3EA"/>
</linearGradient>
<linearGradient id="paint12_linear_138_573" x1="353.998" y1="683.922" x2="581.887" y2="1200.98" gradientUnits="userSpaceOnUse">
<stop stop-color="white"/>
<stop offset="1" stop-color="#FFF3EA"/>
</linearGradient>
<linearGradient id="paint13_linear_138_573" x1="349.314" y1="672.794" x2="581.113" y2="1196.05" gradientUnits="userSpaceOnUse">
<stop stop-color="white"/>
<stop offset="1" stop-color="#FFF3EA"/>
</linearGradient>
<linearGradient id="paint14_linear_138_573" x1="348.903" y1="659.794" x2="587.931" y2="1196.64" gradientUnits="userSpaceOnUse">
<stop stop-color="white"/>
<stop offset="1" stop-color="#FFF3EA"/>
</linearGradient>
<linearGradient id="paint15_linear_138_573" x1="357.721" y1="642.678" x2="604.072" y2="1193.18" gradientUnits="userSpaceOnUse">
<stop stop-color="white"/>
<stop offset="1" stop-color="#FFF3EA"/>
</linearGradient>
<linearGradient id="paint16_linear_138_573" x1="366.579" y1="625.517" x2="620.338" y2="1189.72" gradientUnits="userSpaceOnUse">
<stop stop-color="white"/>
<stop offset="1" stop-color="#FFF3EA"/>
</linearGradient>
<linearGradient id="paint17_linear_138_573" x1="375.473" y1="608.311" x2="636.716" y2="1186.24" gradientUnits="userSpaceOnUse">
<stop stop-color="white"/>
<stop offset="1" stop-color="#FFF3EA"/>
</linearGradient>
<linearGradient id="paint18_linear_138_573" x1="384.399" y1="591.063" x2="653.199" y2="1182.74" gradientUnits="userSpaceOnUse">
<stop stop-color="white"/>
<stop offset="1" stop-color="#FFF3EA"/>
</linearGradient>
<linearGradient id="paint19_linear_138_573" x1="393.352" y1="573.773" x2="669.778" y2="1179.21" gradientUnits="userSpaceOnUse">
<stop stop-color="white"/>
<stop offset="1" stop-color="#FFF3EA"/>
</linearGradient>
<linearGradient id="paint20_linear_138_573" x1="402.332" y1="556.441" x2="686.451" y2="1175.63" gradientUnits="userSpaceOnUse">
<stop stop-color="white"/>
<stop offset="1" stop-color="#FFF3EA"/>
</linearGradient>
<linearGradient id="paint21_linear_138_573" x1="413.989" y1="537.849" x2="705.864" y2="1170.8" gradientUnits="userSpaceOnUse">
<stop stop-color="white"/>
<stop offset="1" stop-color="#FFF3EA"/>
</linearGradient>
<linearGradient id="paint22_linear_138_573" x1="430.505" y1="516.96" x2="730.199" y2="1163.66" gradientUnits="userSpaceOnUse">
<stop stop-color="white"/>
<stop offset="1" stop-color="#FFF3EA"/>
</linearGradient>
<linearGradient id="paint23_linear_138_573" x1="446.997" y1="496.023" x2="754.571" y2="1156.47" gradientUnits="userSpaceOnUse">
<stop stop-color="white"/>
<stop offset="1" stop-color="#FFF3EA"/>
</linearGradient>
<linearGradient id="paint24_linear_138_573" x1="463.464" y1="475.03" x2="778.977" y2="1149.2" gradientUnits="userSpaceOnUse">
<stop stop-color="white"/>
<stop offset="1" stop-color="#FFF3EA"/>
</linearGradient>
<linearGradient id="paint25_linear_138_573" x1="479.905" y1="453.987" x2="803.416" y2="1141.87" gradientUnits="userSpaceOnUse">
<stop stop-color="white"/>
<stop offset="1" stop-color="#FFF3EA"/>
</linearGradient>
<linearGradient id="paint26_linear_138_573" x1="496.321" y1="432.892" x2="827.889" y2="1134.47" gradientUnits="userSpaceOnUse">
<stop stop-color="white"/>
<stop offset="1" stop-color="#FFF3EA"/>
</linearGradient>
<linearGradient id="paint27_linear_138_573" x1="512.713" y1="411.743" x2="852.393" y2="1127" gradientUnits="userSpaceOnUse">
<stop stop-color="white"/>
<stop offset="1" stop-color="#FFF3EA"/>
</linearGradient>
<linearGradient id="paint28_linear_138_573" x1="529.079" y1="390.546" x2="876.93" y2="1119.46" gradientUnits="userSpaceOnUse">
<stop stop-color="white"/>
<stop offset="1" stop-color="#FFF3EA"/>
</linearGradient>
<linearGradient id="paint29_linear_138_573" x1="545.418" y1="369.294" x2="901.495" y2="1111.85" gradientUnits="userSpaceOnUse">
<stop stop-color="white"/>
<stop offset="1" stop-color="#FFF3EA"/>
</linearGradient>
<linearGradient id="paint30_linear_138_573" x1="561.733" y1="347.992" x2="926.092" y2="1104.17" gradientUnits="userSpaceOnUse">
<stop stop-color="white"/>
<stop offset="1" stop-color="#FFF3EA"/>
</linearGradient>
<linearGradient id="paint31_linear_138_573" x1="578.021" y1="326.639" x2="950.718" y2="1096.41" gradientUnits="userSpaceOnUse">
<stop stop-color="white"/>
<stop offset="1" stop-color="#FFF3EA"/>
</linearGradient>
</defs>
</svg>
